<?xml version="1.0" encoding="UTF-8" standalone="no"?>
<!DOCTYPE svg PUBLIC "-//W3C//DTD SVG 1.1//EN" "http://www.w3.org/Graphics/SVG/1.1/DTD/svg11.dtd">
<!-- Generated by graphviz version 2.26.3 (20100126.1600)
 -->
<!-- Title: G Pages: 1 -->
<svg xmlns="http://www.w3.org/2000/svg" xmlns:xlink="http://www.w3.org/1999/xlink" width="360pt" height="184pt">
<g id="viewport" class="graph" transform="scale(1 1) rotate(0) translate(4 180)">
<title>G</title>
<polygon fill="white" stroke="white" points="-4,5 -4,-180 357,-180 357,5 -4,5"/>
<g id="graph2" class="cluster"><title>cluster_default</title>
<polyline fill="none" stroke="none" points="202,-8 332,-8 "/>
<path fill="none" stroke="none" d="M332,-8C338,-8 344,-14 344,-20"/>
<polyline fill="none" stroke="none" points="344,-20 344,-156 "/>
<path fill="none" stroke="none" d="M344,-156C344,-162 338,-168 332,-168"/>
<polyline fill="none" stroke="none" points="332,-168 202,-168 "/>
<path fill="none" stroke="none" d="M202,-168C196,-168 190,-162 190,-156"/>
<polyline fill="none" stroke="none" points="190,-156 190,-20 "/>
<path fill="none" stroke="none" d="M190,-20C190,-14 196,-8 202,-8"/>
</g>
<!-- _flatpageAdminTable -->
<g id="node2" class="node"><title>_flatpageAdminTable</title>
<a xlink:href="db_flatpage_flatpageAdminTable.html" xlink:title="flatpageAdminTable" target="_parent">
<polygon fill="none" stroke="black" points="336,-160 198,-160 198,-124 336,-124 336,-160"/>
<text text-anchor="middle" x="267" y="-139.1" font-family="Courier New" font-size="11.00">flatpageAdminTable</text>
</a>
</g>
<!-- _adminTable -->
<g id="node6" class="node"><title>_adminTable</title>
<ellipse fill="none" stroke="black" cx="63" cy="-144" rx="62.9325" ry="19.0919"/>
<text text-anchor="middle" x="63" y="-140.9" font-family="Times Roman,serif" font-size="14.00" fill="gray">\\adminTable</text>
</g>
<!-- _flatpageAdminTable&#45;&gt;_adminTable -->
<g id="edge3" class="edge"><title>_flatpageAdminTable-&gt;_adminTable</title>
<path fill="none" stroke="black" d="M197.935,-142.677C178.059,-142.872 156.315,-143.085 136.198,-143.282"/>
<polygon fill="none" stroke="black" points="136.124,-139.783 126.159,-143.381 136.192,-146.782 136.124,-139.783"/>
</g>
<!-- _flatpage -->
<g id="node3" class="node"><title>_flatpage</title>
<a xlink:href="db_flatpage_flatpage.html" xlink:title="flatpage" target="_parent">
<polygon fill="none" stroke="black" points="302,-106 232,-106 232,-70 302,-70 302,-106"/>
<text text-anchor="middle" x="267" y="-85.1" font-family="Courier New" font-size="11.00">flatpage</text>
</a>
</g>
<!-- _model -->
<g id="node8" class="node"><title>_model</title>
<ellipse fill="none" stroke="black" cx="63" cy="-88" rx="41.2167" ry="19.0919"/>
<text text-anchor="middle" x="63" y="-84.9" font-family="Times Roman,serif" font-size="14.00" fill="gray">\\model</text>
</g>
<!-- _flatpage&#45;&gt;_model -->
<g id="edge5" class="edge"><title>_flatpage-&gt;_model</title>
<path fill="none" stroke="black" d="M231.466,-88C199.361,-88 151.696,-88 115.252,-88"/>
<polygon fill="none" stroke="black" points="114.813,-84.5001 104.813,-88 114.813,-91.5001 114.813,-84.5001"/>
</g>
<!-- _flatpageController -->
<g id="node4" class="node"><title>_flatpageController</title>
<a xlink:href="db_flatpage_flatpage.controller.html" xlink:title="flatpageController" target="_parent">
<polygon fill="none" stroke="black" points="336,-52 198,-52 198,-16 336,-16 336,-52"/>
<text text-anchor="middle" x="267" y="-31.1" font-family="Courier New" font-size="11.00">flatpageController</text>
</a>
</g>
<!-- _controller -->
<g id="node10" class="node"><title>_controller</title>
<ellipse fill="none" stroke="black" cx="63" cy="-32" rx="53.9477" ry="19.0919"/>
<text text-anchor="middle" x="63" y="-28.9" font-family="Times Roman,serif" font-size="14.00" fill="gray">\\controller</text>
</g>
<!-- _flatpageController&#45;&gt;_controller -->
<g id="edge7" class="edge"><title>_flatpageController-&gt;_controller</title>
<path fill="none" stroke="black" d="M197.935,-33.3229C175.181,-33.0998 149.977,-32.8527 127.571,-32.6331"/>
<polygon fill="none" stroke="black" points="127.526,-29.1325 117.492,-32.5342 127.458,-36.1322 127.526,-29.1325"/>
</g>
</g>
<script xlink:href="js/SVGPan.js"/></svg>
